<svg width="50" height="50" viewBox="0 0 50 50" fill="none"
  xmlns="http://www.w3.org/2000/svg">
  <rect width="50" height="50" rx="20" fill="#1F9C81"/>
  <path d="M31.1908 22.6276L24.8268 28.9915C24.6581 29.1603 24.4291 29.2551 24.1905 29.2551H21.6449C21.1478 29.2551 20.7449 28.8522 20.7449 28.3551V25.8095C20.7449 25.5709 20.8397 25.3419 21.0085 25.1731L27.3724 18.8092L29.918 16.2636C30.2695 15.9121 30.8393 15.9121 31.1908 16.2636L33.7364 18.8092C34.0879 19.1607 34.0879 19.7305 33.7364 20.082L31.1908 22.6276ZM32.2 27.025C32.2 26.5279 32.6029 26.125 33.1 26.125C33.5971 26.125 34 26.5279 34 27.025V30.4C34 32.3882 32.3882 34 30.4 34H19.6C17.6118 34 16 32.3882 16 30.4V19.6C16 17.6118 17.6118 16 19.6 16H22.975C23.4721 16 23.875 16.4029 23.875 16.9C23.875 17.3971 23.4721 17.8 22.975 17.8H19.6C18.6059 17.8 17.8 18.6059 17.8 19.6V30.4C17.8 31.3941 18.6059 32.2 19.6 32.2H30.4C31.3941 32.2 32.2 31.3941 32.2 30.4V27.025ZM22.5449 26.1823V27.4551H23.8177L29.2816 21.9912L28.0088 20.7184L22.5449 26.1823ZM29.2816 19.4456L30.5544 20.7184L31.8272 19.4456L30.5544 18.1728L29.2816 19.4456Z" fill="white"/>
</svg>
