<svg width="110" height="102" viewBox="0 0 110 102" fill="none"
  xmlns="http://www.w3.org/2000/svg">
  <rect opacity="0.5" y="32" width="11.4286" height="48" rx="5.71429" fill="#1F9C81"/>
  <rect opacity="0.5" x="16.4287" y="40" width="11.4286" height="40" rx="5.71429" fill="#1F9C81"/>
  <rect opacity="0.5" x="32.8569" y="16" width="11.4286" height="64" rx="5.71429" fill="#1F9C81"/>
  <rect x="49.2856" y="32" width="11.4286" height="48" rx="5.71429" fill="#1F9C81"/>
  <rect opacity="0.5" x="65.7144" y="16" width="11.4286" height="64" rx="5.71429" fill="#1F9C81"/>
  <rect opacity="0.5" x="82.1431" width="11.4286" height="80" rx="5.71429" fill="#1F9C81"/>
  <rect opacity="0.5" x="98.5713" y="8" width="11.4286" height="72" rx="5.71429" fill="#1F9C81"/>
  <g opacity="0.5">
    <path d="M3.21429 98.2178H4.00042C4.06878 98.8867 4.63518 99.4336 5.68499 99.4336C6.63225 99.4336 7.25237 98.9746 7.25237 98.2178C7.25237 97.6514 6.90569 97.3242 6.15374 97.1289L4.95745 96.8115C4.18597 96.6064 3.41936 96.1084 3.41936 95.0781C3.41936 93.8379 4.53753 93.1738 5.69964 93.1738C6.7885 93.1738 7.95061 93.7451 7.97991 95.0586H7.19866C7.13518 94.3945 6.63714 93.8818 5.68011 93.8818C4.83538 93.8818 4.21038 94.2871 4.21038 95.0244C4.21038 95.5127 4.50823 95.8789 5.15276 96.0449L6.32464 96.3623C7.35491 96.6406 8.04827 97.1143 8.04827 98.1641C8.04827 99.4775 6.93987 100.142 5.58733 100.142C3.84905 100.142 3.24358 99.0723 3.21429 98.2178Z" fill="#2D2B2E"/>
    <path d="M19.643 98.2178H20.4291C20.4975 98.8867 21.0639 99.4336 22.1137 99.4336C23.061 99.4336 23.6811 98.9746 23.6811 98.2178C23.6811 97.6514 23.3344 97.3242 22.5824 97.1289L21.3862 96.8115C20.6147 96.6064 19.8481 96.1084 19.8481 95.0781C19.8481 93.8379 20.9662 93.1738 22.1283 93.1738C23.2172 93.1738 24.3793 93.7451 24.4086 95.0586H23.6274C23.5639 94.3945 23.0658 93.8818 22.1088 93.8818C21.2641 93.8818 20.6391 94.2871 20.6391 95.0244C20.6391 95.5127 20.9369 95.8789 21.5815 96.0449L22.7533 96.3623C23.7836 96.6406 24.477 97.1143 24.477 98.1641C24.477 99.4775 23.3686 100.142 22.016 100.142C20.2778 100.142 19.6723 99.0723 19.643 98.2178Z" fill="#2D2B2E"/>
    <path d="M38.8105 93.335C40.2753 93.335 40.9199 94.2773 40.9199 95.3027C40.9199 96.3965 40.2753 96.9434 39.6747 97.1582L41.037 100H40.1435L38.9033 97.3193H37.2187V100H36.4423V93.335H38.8105ZM37.2187 96.6113H38.6738C39.6357 96.6113 40.1191 96.1572 40.1191 95.3564C40.1191 94.4873 39.5722 94.043 38.7128 94.043H37.2187V96.6113Z" fill="#2D2B2E"/>
    <path d="M57.6513 93.335L55.1513 96.167L57.788 100H56.787L54.5702 96.709L53.7255 97.6221V100H52.9491V93.335H53.7255V96.5967H53.7597L56.7187 93.335H57.6513Z" fill="#2D2B2E"/>
    <path d="M69.2265 98.5303H69.9882C70.0126 99.1016 70.4911 99.4336 71.0234 99.4336C71.6825 99.4336 72.1708 99.082 72.1708 98.1836V93.335H72.9472V98.0957C72.9472 99.4873 72.1513 100.142 71.0234 100.142C69.954 100.142 69.2265 99.4971 69.2265 98.5303Z" fill="#2D2B2E"/>
    <path d="M85.3574 98.2178H86.1435C86.2118 98.8867 86.7783 99.4336 87.8281 99.4336C88.7753 99.4336 89.3954 98.9746 89.3954 98.2178C89.3954 97.6514 89.0488 97.3242 88.2968 97.1289L87.1005 96.8115C86.329 96.6064 85.5624 96.1084 85.5624 95.0781C85.5624 93.8379 86.6806 93.1738 87.8427 93.1738C88.9316 93.1738 90.0937 93.7451 90.123 95.0586H89.3417C89.2783 94.3945 88.7802 93.8818 87.8232 93.8818C86.9784 93.8818 86.3534 94.2871 86.3534 95.0244C86.3534 95.5127 86.6513 95.8789 87.2958 96.0449L88.4677 96.3623C89.498 96.6406 90.1913 97.1143 90.1913 98.1641C90.1913 99.4775 89.0829 100.142 87.7304 100.142C85.9921 100.142 85.3866 99.0723 85.3574 98.2178Z" fill="#2D2B2E"/>
    <path d="M101.981 100H101.273V93.335H102.02L104.271 98.6719H104.3L106.541 93.335H107.293V100H106.585V95.0342H106.541L104.632 99.4873H103.934L102.02 95.0342H101.981V100Z" fill="#2D2B2E"/>
  </g>
  <path d="M18.6866 10.0052L13.3341 4.03138C13.2365 3.92247 13.1161 3.83623 12.9814 3.77872C12.4731 3.56172 11.8844 3.79625 11.6665 4.30256L10.9923 5.86927C10.8666 6.16147 10.6949 6.43184 10.4837 6.67022C9.38598 7.90938 7.4875 8.02758 6.24335 6.93422L0.338876 1.74532C-0.0758375 1.38087 -0.115395 0.750575 0.250523 0.337521C0.616441 -0.0755339 1.24927 -0.114932 1.66398 0.249521L7.56846 5.43842C7.98317 5.80287 8.616 5.76347 8.98192 5.35042C9.05231 5.27096 9.10954 5.18083 9.15145 5.08343L9.82563 3.51673C10.4793 1.9978 12.2454 1.2942 13.7704 1.94521C14.1745 2.11772 14.5357 2.37646 14.8284 2.70317L19.9972 8.47192V4.02072C19.9972 3.46987 20.4455 3.02331 20.9986 3.02331C21.5517 3.02331 22 3.46987 22 4.02072V10.0052C22 11.1069 21.1033 12 19.9972 12H13.9887C13.4356 12 12.9872 11.5534 12.9872 11.0026C12.9872 10.4517 13.4356 10.0052 13.9887 10.0052H18.6866Z" fill="#C80009"/>
</svg>
