<svg width="105" height="102" viewBox="0 0 105 102" fill="none" xmlns="http://www.w3.org/2000/svg">
<rect opacity="0.5" y="56" width="10.7143" height="24" rx="5.35714" fill="#C80009"/>
<rect opacity="0.5" x="15.7144" y="40" width="10.7143" height="40" rx="5.35714" fill="#C80009"/>
<rect opacity="0.5" x="31.4287" y="16" width="10.7143" height="64" rx="5.35714" fill="#C80009"/>
<rect x="47.1431" y="32" width="10.7143" height="48" rx="5.35714" fill="#C80009"/>
<rect opacity="0.5" x="62.8569" y="64" width="10.7143" height="16" rx="5.35714" fill="#C80009"/>
<rect opacity="0.5" x="78.5713" width="10.7143" height="80" rx="5.35714" fill="#C80009"/>
<rect opacity="0.5" x="94.2856" y="72" width="10.7143" height="8" rx="4" fill="#C80009"/>
<path d="M2.85714 98.2178H3.64328C3.71164 98.8867 4.27804 99.4336 5.32785 99.4336C6.27511 99.4336 6.89523 98.9746 6.89523 98.2178C6.89523 97.6514 6.54855 97.3242 5.7966 97.1289L4.60031 96.8115C3.82882 96.6064 3.06222 96.1084 3.06222 95.0781C3.06222 93.8379 4.18039 93.1738 5.34249 93.1738C6.43136 93.1738 7.59347 93.7451 7.62277 95.0586H6.84152C6.77804 94.3945 6.27999 93.8818 5.32296 93.8818C4.47824 93.8818 3.85324 94.2871 3.85324 95.0244C3.85324 95.5127 4.15109 95.8789 4.79562 96.0449L5.96749 96.3623C6.99777 96.6406 7.69113 97.1143 7.69113 98.1641C7.69113 99.4775 6.58273 100.142 5.23019 100.142C3.49191 100.142 2.88644 99.0723 2.85714 98.2178Z" fill="#2D2B2E"/>
<path d="M18.5715 98.2178H19.3576C19.426 98.8867 19.9924 99.4336 21.0422 99.4336C21.9895 99.4336 22.6096 98.9746 22.6096 98.2178C22.6096 97.6514 22.2629 97.3242 21.511 97.1289L20.3147 96.8115C19.5432 96.6064 18.7766 96.1084 18.7766 95.0781C18.7766 93.8379 19.8947 93.1738 21.0568 93.1738C22.1457 93.1738 23.3078 93.7451 23.3371 95.0586H22.5559C22.4924 94.3945 21.9943 93.8818 21.0373 93.8818C20.1926 93.8818 19.5676 94.2871 19.5676 95.0244C19.5676 95.5127 19.8654 95.8789 20.51 96.0449L21.6818 96.3623C22.7121 96.6406 23.4055 97.1143 23.4055 98.1641C23.4055 99.4775 22.2971 100.142 20.9445 100.142C19.2063 100.142 18.6008 99.0723 18.5715 98.2178Z" fill="#2D2B2E"/>
<path d="M37.0251 93.335C38.49 93.335 39.1345 94.2773 39.1345 95.3027C39.1345 96.3965 38.49 96.9434 37.8894 97.1582L39.2517 100H38.3581L37.1179 97.3193H35.4333V100H34.6569V93.335H37.0251ZM35.4333 96.6113H36.8884C37.8503 96.6113 38.3337 96.1572 38.3337 95.3564C38.3337 94.4873 37.7868 94.043 36.9275 94.043H35.4333V96.6113Z" fill="#2D2B2E"/>
<path d="M55.1516 93.335L52.6516 96.167L55.2883 100H54.2873L52.0705 96.709L51.2258 97.6221V100H50.4494V93.335H51.2258V96.5967H51.26L54.219 93.335H55.1516Z" fill="#2D2B2E"/>
<path d="M66.0119 98.5303H66.7736C66.7981 99.1016 67.2766 99.4336 67.8088 99.4336C68.468 99.4336 68.9563 99.082 68.9563 98.1836V93.335H69.7326V98.0957C69.7326 99.4873 68.9367 100.142 67.8088 100.142C66.7395 100.142 66.0119 99.4971 66.0119 98.5303Z" fill="#2D2B2E"/>
<path d="M81.4284 98.2178H82.2146C82.2829 98.8867 82.8493 99.4336 83.8991 99.4336C84.8464 99.4336 85.4665 98.9746 85.4665 98.2178C85.4665 97.6514 85.1198 97.3242 84.3679 97.1289L83.1716 96.8115C82.4001 96.6064 81.6335 96.1084 81.6335 95.0781C81.6335 93.8379 82.7517 93.1738 83.9138 93.1738C85.0027 93.1738 86.1648 93.7451 86.1941 95.0586H85.4128C85.3493 94.3945 84.8513 93.8818 83.8943 93.8818C83.0495 93.8818 82.4245 94.2871 82.4245 95.0244C82.4245 95.5127 82.7224 95.8789 83.3669 96.0449L84.5388 96.3623C85.5691 96.6406 86.2624 97.1143 86.2624 98.1641C86.2624 99.4775 85.154 100.142 83.8015 100.142C82.0632 100.142 81.4577 99.0723 81.4284 98.2178Z" fill="#2D2B2E"/>
<path d="M97.3381 100H96.6301V93.335H97.3772L99.6281 98.6719H99.6574L101.899 93.335H102.651V100H101.943V95.0342H101.899L99.9895 99.4873H99.2912L97.3772 95.0342H97.3381V100Z" fill="#2D2B2E"/>
<path d="M18.6866 10.0052L13.3341 4.03138C13.2365 3.92247 13.1161 3.83623 12.9814 3.77872C12.4731 3.56172 11.8844 3.79625 11.6665 4.30256L10.9923 5.86927C10.8666 6.16147 10.6949 6.43184 10.4837 6.67022C9.38598 7.90938 7.4875 8.02758 6.24335 6.93422L0.338876 1.74532C-0.0758375 1.38087 -0.115395 0.750575 0.250523 0.337521C0.616441 -0.0755339 1.24927 -0.114932 1.66398 0.249521L7.56846 5.43842C7.98317 5.80287 8.616 5.76347 8.98192 5.35042C9.05231 5.27096 9.10954 5.18083 9.15145 5.08343L9.82563 3.51673C10.4793 1.9978 12.2454 1.2942 13.7704 1.94521C14.1745 2.11772 14.5357 2.37646 14.8284 2.70317L19.9972 8.47192V4.02072C19.9972 3.46987 20.4455 3.02331 20.9986 3.02331C21.5517 3.02331 22 3.46987 22 4.02072V10.0052C22 11.1069 21.1033 12 19.9972 12H13.9887C13.4356 12 12.9872 11.5534 12.9872 11.0026C12.9872 10.4517 13.4356 10.0052 13.9887 10.0052H18.6866Z" fill="#C80009"/>
</svg>
