<svg width="22" height="22" viewBox="0 0 22 22" fill="none"
  xmlns="http://www.w3.org/2000/svg">
  <path d="M11 22C4.92487 22 0 17.0751 0 11C0 4.92487 4.92487 0 11 0C17.0751 0 22 4.92487 22 11C22 17.0751 17.0751 22 11 22ZM11 20C15.9706 20 20 15.9706 20 11C20 6.02944 15.9706 2 11 2C6.02944 2 2 6.02944 2 11C2 15.9706 6.02944 20 11 20ZM15 8.5C15 10.3638 13.7252 11.9299 12 12.374V13C12 13.5523 11.5523 14 11 14C10.4477 14 10 13.5523 10 13V11.5C10 10.9477 10.4477 10.5 11 10.5C12.1046 10.5 13 9.60457 13 8.5C13 7.39543 12.1046 6.5 11 6.5C9.89543 6.5 9 7.39543 9 8.5C9 9.05228 8.55229 9.5 8 9.5C7.44772 9.5 7 9.05228 7 8.5C7 6.29086 8.79086 4.5 11 4.5C13.2091 4.5 15 6.29086 15 8.5ZM10 16.5C10 15.9477 10.4477 15.5 11 15.5C11.5523 15.5 12 15.9477 12 16.5C12 17.0523 11.5523 17.5 11 17.5C10.4477 17.5 10 17.0523 10 16.5Z" fill="#1F9C81"/>
</svg>
