<svg width="20" height="18" viewBox="0 0 20 18" fill="none" xmlns="http://www.w3.org/2000/svg">
<path d="M17.2727 9V10.8947C17.2727 11.418 16.8657 11.8421 16.3636 11.8421C15.8616 11.8421 15.4545 11.418 15.4545 10.8947V9H13.6364C13.1343 9 12.7273 8.57585 12.7273 8.05263C12.7273 7.52941 13.1343 7.10526 13.6364 7.10526H15.4545V5.21053C15.4545 4.68731 15.8616 4.26316 16.3636 4.26316C16.8657 4.26316 17.2727 4.68731 17.2727 5.21053V7.10526H19.0909C19.593 7.10526 20 7.52941 20 8.05263C20 8.57585 19.593 9 19.0909 9H17.2727ZM7.27273 9.47368C4.76234 9.47368 2.72727 7.35293 2.72727 4.73684C2.72727 2.12076 4.76234 0 7.27273 0C9.78311 0 11.8182 2.12076 11.8182 4.73684C11.8182 7.35293 9.78311 9.47368 7.27273 9.47368ZM7.27273 7.57895C8.77896 7.57895 10 6.30649 10 4.73684C10 3.16719 8.77896 1.89474 7.27273 1.89474C5.7665 1.89474 4.54545 3.16719 4.54545 4.73684C4.54545 6.30649 5.7665 7.57895 7.27273 7.57895ZM0 16.1053V14.2105C0 12.1177 1.62806 10.4211 3.63636 10.4211H10.9091C12.9174 10.4211 14.5455 12.1177 14.5455 14.2105V16.1053C14.5455 17.1517 13.7314 18 12.7273 18H1.81818C0.814028 18 0 17.1517 0 16.1053ZM1.81818 16.1053H12.7273V14.2105C12.7273 13.1641 11.9132 12.3158 10.9091 12.3158H3.63636C2.63221 12.3158 1.81818 13.1641 1.81818 14.2105V16.1053Z" fill="white"/>
</svg>
