<svg width="20" height="20" viewBox="0 0 20 20" fill="none"
  xmlns="http://www.w3.org/2000/svg">
  <path d="M13.8293 18C13.4175 19.1652 12.3062 20 11 20C9.69378 20 8.58254 19.1652 8.17071 18H1C0.447715 18 0 17.5523 0 17C0 16.4477 0.447715 16 1 16H8.17071C8.58254 14.8348 9.69378 14 11 14C12.3062 14 13.4175 14.8348 13.8293 16H19C19.5523 16 20 16.4477 20 17C20 17.5523 19.5523 18 19 18H13.8293ZM7.82929 11C7.41746 12.1652 6.30622 13 5 13C3.69378 13 2.58254 12.1652 2.17071 11H1C0.447715 11 0 10.5523 0 10C0 9.44772 0.447715 9 1 9H2.17071C2.58254 7.83481 3.69378 7 5 7C6.30622 7 7.41746 7.83481 7.82929 9H19C19.5523 9 20 9.44772 20 10C20 10.5523 19.5523 11 19 11H7.82929ZM17.8293 4C17.4175 5.16519 16.3062 6 15 6C13.6938 6 12.5825 5.16519 12.1707 4H1C0.447715 4 0 3.55228 0 3C0 2.44772 0.447715 2 1 2H12.1707C12.5825 0.834808 13.6938 0 15 0C16.3062 0 17.4175 0.834808 17.8293 2H19C19.5523 2 20 2.44772 20 3C20 3.55228 19.5523 4 19 4H17.8293ZM15 4C15.5523 4 16 3.55228 16 3C16 2.44772 15.5523 2 15 2C14.4477 2 14 2.44772 14 3C14 3.55228 14.4477 4 15 4ZM5 11C5.55228 11 6 10.5523 6 10C6 9.44772 5.55228 9 5 9C4.44772 9 4 9.44772 4 10C4 10.5523 4.44772 11 5 11ZM11 18C11.5523 18 12 17.5523 12 17C12 16.4477 11.5523 16 11 16C10.4477 16 10 16.4477 10 17C10 17.5523 10.4477 18 11 18Z" fill="#2D2B2E"/>
</svg>
