<svg width="24" height="26" viewBox="0 0 24 26" fill="none"
  xmlns="http://www.w3.org/2000/svg">
  <path d="M16 21.4935H18C19.1046 21.4935 20 20.598 20 19.4935V10.9013C20 10.2638 19.6961 9.66453 19.1818 9.28784L13.1818 4.89311C12.4782 4.37775 11.5218 4.37775 10.8182 4.89311L4.81819 9.28784C4.3039 9.66453 4 10.2638 4 10.9013V19.4935C4 20.598 4.89543 21.4935 6 21.4935H8V13.4935C8 12.9412 8.44772 12.4935 9 12.4935H15C15.5523 12.4935 16 12.9412 16 13.4935V21.4935ZM14 21.4935V14.4935H10V21.4935H14ZM3.63639 7.67435L9.63639 3.27962C11.0436 2.24892 12.9564 2.24892 14.3636 3.27962L20.3636 7.67435C21.3922 8.42774 22 9.62634 22 10.9013V19.4935C22 21.7026 20.2091 23.4935 18 23.4935H6C3.79086 23.4935 2 21.7026 2 19.4935V10.9013C2 9.62634 2.60781 8.42774 3.63639 7.67435Z" fill="#2D2B2E"/>
</svg>
