<svg width="32" height="31" viewBox="0 0 32 31" fill="none" xmlns="http://www.w3.org/2000/svg">
<circle cx="10.8105" cy="27.8967" r="3.10345" fill="#1F9C81"/>
<circle cx="24.2587" cy="27.8967" r="3.10345" fill="#1F9C81"/>
<path d="M8.26332 17.5518H25.8848C26.7628 17.5518 27.5381 16.9791 27.7964 16.14L30.7035 6.69169C31.0992 5.40558 30.1376 4.10352 28.792 4.10352H6.08295C4.79678 4.10352 3.84496 5.3 4.13417 6.55323L6.31454 16.0015C6.52395 16.909 7.33201 17.5518 8.26332 17.5518Z" fill="#C80009"/>
<path d="M1.5 1L2.73364 1.82242C3.92288 2.61525 4.71597 3.87913 4.9126 5.29483L6.59074 17.3775C6.93407 19.8494 9.04756 21.6897 11.5432 21.6897H27.3621" stroke="#2D2B2E" stroke-width="2" stroke-linecap="round" stroke-linejoin="round"/>
<path d="M15.9829 7.20679H26.3277" stroke="white" stroke-width="2" stroke-linecap="round" stroke-linejoin="round"/>
</svg>
