<svg width="22" height="22" viewBox="0 0 22 22" fill="none"
  xmlns="http://www.w3.org/2000/svg">
  <path d="M10.2858 21.4997C9.90475 21.1108 9.90475 20.4886 10.2858 20.0997C12.6519 17.6846 14 14.45 14 11C14 7.55003 12.6519 4.31542 10.2858 1.90031C9.90475 1.51142 9.90475 0.889152 10.2858 0.500263C10.3565 0.42811 10.4279 0.356668 10.5 0.285949C10.6918 0.0979049 10.9511 -0.00507675 11.2197 0.000192716C17.2022 0.117594 22 5.00573 22 11C22 16.9943 17.2022 21.8824 11.2197 21.9998C10.9511 22.0051 10.6918 21.9021 10.5 21.7141C10.4279 21.6433 10.3565 21.5719 10.2858 21.4997ZM11.7142 20.0997C11.7756 20.1623 11.8375 20.2242 11.9001 20.2856L11.2 20.9998L11.1804 19.9998C11.8761 19.9862 12.5522 19.8937 13.2002 19.7309C17.1111 18.7485 20 15.2072 20 11C20 6.79284 17.1111 3.25151 13.2002 2.26912C12.5522 2.10634 11.8761 2.01382 11.1804 2.00016L11.2 1.00018L11.9001 1.71441C11.8375 1.77575 11.7756 1.83772 11.7142 1.90031L11 1.20029L11.7142 0.500263C12.2569 1.05416 12.7532 1.64563 13.2002 2.26912C15.0008 4.78094 16 7.81242 16 11C16 14.1876 15.0008 17.2191 13.2002 19.7309C12.7532 20.3544 12.2569 20.9458 11.7142 21.4997L11 20.7997L11.7142 20.0997ZM8.62685 15.0007C9.24237 16.9082 10.2952 18.6513 11.7142 20.0997C12.0953 20.4886 12.0953 21.1108 11.7142 21.4997C11.6435 21.5719 11.5721 21.6433 11.5 21.7141C11.3082 21.9021 11.0489 22.0051 10.7803 21.9998C4.79784 21.8824 0 16.9943 0 11C0 5.00573 4.79784 0.117594 10.7803 0.000192716C11.0489 -0.00507675 11.3082 0.0979049 11.5 0.285949C11.5721 0.356668 11.6435 0.42811 11.7142 0.500263C12.0953 0.889152 12.0953 1.51142 11.7142 1.90031C10.2952 3.34867 9.24237 5.09176 8.62685 6.99929H20C20.5523 6.99929 21 7.44708 21 7.99947C21 8.55185 20.5523 8.99964 20 8.99964H8.15305C8.05185 9.65511 8 10.3234 8 11C8 11.6766 8.05185 12.3449 8.15305 13.0004H20C20.5523 13.0004 21 13.4482 21 14.0005C21 14.5529 20.5523 15.0007 20 15.0007H8.62685ZM6.13252 13.0004C6.0448 12.3429 6 11.6749 6 11C6 10.3251 6.0448 9.65713 6.13252 8.99964H2.22316C2.0771 9.64316 2 10.3127 2 11C2 11.6873 2.0771 12.3568 2.22316 13.0004H6.13252ZM6.5397 15.0007H2.9358C4.0916 17.3269 6.22406 19.0839 8.79981 19.7309C9.44784 19.8937 10.1239 19.9862 10.8196 19.9998L10.8 20.9998L10.0999 20.2856C10.1625 20.2242 10.2244 20.1623 10.2858 20.0997L11 20.7997L10.2858 21.4997C9.74308 20.9458 9.24676 20.3544 8.79981 19.7309C7.77432 18.3003 7.00877 16.7012 6.5397 15.0007ZM6.5397 6.99929C7.00877 5.29878 7.77432 3.69967 8.79981 2.26912C9.24676 1.64563 9.74308 1.05416 10.2858 0.500263L11 1.20029L10.2858 1.90031C10.2244 1.83772 10.1625 1.77575 10.0999 1.71441L10.8 1.00018L10.8196 2.00016C10.1239 2.01382 9.44784 2.10634 8.79981 2.26912C6.22406 2.91613 4.0916 4.67313 2.9358 6.99929H6.5397Z" fill="#1F9C81"/>
</svg>
