<svg width="146" height="40" viewBox="0 0 146 40" fill="none"
  xmlns="http://www.w3.org/2000/svg">
  <rect width="145.646" height="40" rx="10" fill="white"/>
  <path d="M11.9425 29.9998C10.6467 29.9998 10 29.3715 10 28.1143V11.9717C10 10.7145 10.6473 10.0862 11.9425 10.0862H13.6283V29.9998H11.9425Z" fill="#C80009"/>
  <path d="M19.694 29.9998C18.3983 29.9998 17.751 29.3715 17.751 28.1143V11.9717C17.751 10.7145 18.3983 10.0862 19.694 10.0862H21.2084L30.3223 23.3434V11.9717C30.3223 10.7145 30.9794 10.0862 32.2935 10.0862H33.9224V29.9998H32.2935C31.0553 29.9998 30.1411 29.562 29.5507 28.6857L21.3793 16.7432V29.9998H19.694Z" fill="#C80009"/>
  <path d="M43.29 24.5713C42.9851 25.4672 42.6565 26.3814 42.3044 27.3141C41.9517 28.2474 41.6422 29.1427 41.3758 29.9994H39.347C38.7756 29.9994 38.3942 29.8141 38.2043 29.4424C38.0139 29.0713 37.9943 28.657 38.1473 28.1996L44.0041 11.7146C44.2135 11.1623 44.6042 10.7388 45.1755 10.443C45.7469 10.1479 46.3562 10 47.0041 10C47.6519 10 48.29 10.1479 48.8614 10.443C49.4327 10.7388 49.8326 11.1623 50.061 11.7146L56.5466 30H54.061C53.1651 30 52.5564 29.5529 52.2325 28.6576L50.7756 24.5719H43.29V24.5713ZM44.5754 20.9712H49.4897L47.0328 14.057L44.5754 20.9712Z" fill="#C80009"/>
  <path d="M77.3834 21.0575C77.3834 20.2002 77.193 19.5575 76.8121 19.1288C76.4306 18.7002 75.8121 18.4861 74.9548 18.4861C74.193 18.4861 73.6073 18.7243 73.1976 19.2002C72.7879 19.6766 72.5837 20.2957 72.5837 21.0575V29.9999H70.9266C69.6504 29.9999 69.0123 29.3814 69.0123 28.1432V21.0575C69.0123 20.2957 68.8023 19.6766 68.3835 19.2002C67.9646 18.7243 67.3737 18.4861 66.6125 18.4861C65.7552 18.4861 65.1453 18.7002 64.7839 19.1288C64.422 19.5575 64.2408 20.2002 64.2408 21.0575V29.9999H62.5837C61.3075 29.9999 60.6694 29.3814 60.6694 28.1432V21.0575C60.6694 20.1432 60.8023 19.3055 61.0693 18.5431C61.3357 17.7813 61.7218 17.134 62.2264 16.6006C62.731 16.0678 63.3501 15.6536 64.0837 15.3578C64.8167 15.0627 65.6596 14.9148 66.6125 14.9148C68.2885 14.9148 69.6884 15.4482 70.8121 16.5149C71.9163 15.4482 73.2977 14.9148 74.9548 14.9148C75.8691 14.9148 76.6976 15.0575 77.4404 15.3434C78.1832 15.6288 78.8121 16.0391 79.3265 16.5719C79.8403 17.1052 80.2356 17.7531 80.5117 18.5149C80.7873 19.2767 80.926 20.1248 80.926 21.0575V29.9999H79.2977C78.0215 29.9999 77.3834 29.3814 77.3834 28.1432V21.0575Z" fill="#C80009"/>
  <path d="M85.0488 12.229C85.0488 10.9914 85.6961 10.3723 86.9919 10.3723H88.6489V12.0864C88.6489 13.3435 88.0011 13.9718 86.7059 13.9718H85.0488V12.229ZM85.0488 17.2008C85.0488 15.9626 85.6961 15.3435 86.9919 15.3435H88.6489V30H86.9919C85.6961 30 85.0488 29.3815 85.0488 28.1433V17.2008Z" fill="#C80009"/>
  <path d="M92.772 12.229C92.772 10.9914 93.4193 10.3723 94.715 10.3723H96.3721V21.0863H96.9434C97.2098 21.0863 97.4244 21.0771 97.5861 21.0576C97.7478 21.0392 97.8865 20.9534 98.0004 20.8004L100.6 16.515C100.848 16.1537 101.144 15.8677 101.486 15.6577C101.829 15.4483 102.19 15.3435 102.572 15.3435H105.486L101.801 21.3717C101.724 21.5052 101.638 21.6387 101.544 21.7722C101.924 22.0196 102.267 22.3389 102.572 22.729C102.876 23.1197 103.143 23.5622 103.372 24.0576L105.972 30H103.6C102.591 30 101.924 29.6289 101.6 28.8861L100.115 25.4574C99.8865 24.9246 99.486 24.6577 98.9147 24.6577H96.3721V30H94.715C93.4193 30 92.772 29.3815 92.772 28.1433V12.229Z" fill="#C80009"/>
  <path d="M110.094 20.6002C110.094 19.7999 110.218 19.0766 110.466 18.4287C110.713 17.7814 111.066 17.2285 111.523 16.7717C111.98 16.3142 112.523 15.9621 113.152 15.7141C113.78 15.4667 114.475 15.343 115.237 15.343H117.438V16.9713C117.438 18.2671 116.828 18.9144 115.609 18.9144H115.237C114.781 18.9144 114.409 19.0668 114.124 19.3712C113.838 19.6762 113.695 20.0858 113.695 20.6002V30.0001H112.038C110.742 30.0001 110.095 29.3815 110.095 28.1433V20.6008L110.094 20.6002Z" fill="#C80009"/>
  <path d="M128.617 14.4861C130.502 14.4861 132.112 15.0574 133.445 16.2001C134.912 17.4383 135.646 18.9147 135.646 20.6288V23.8572C135.646 24.7145 135.45 25.524 135.06 26.2858C134.669 27.0476 134.131 27.7243 133.445 28.3146C132.779 28.848 132.036 29.2622 131.217 29.5574C130.398 29.8531 129.532 29.9999 128.617 29.9999C127.703 29.9999 126.765 29.8382 125.917 29.5142C125.07 29.1903 124.322 28.7525 123.674 28.2001C123.027 27.6477 122.513 26.9999 122.132 26.2571C121.75 25.5143 121.561 24.7145 121.561 23.8572V20.6288C121.561 18.8768 122.294 17.4003 123.76 16.2001C125.093 15.0574 126.712 14.4861 128.617 14.4861H128.617ZM131.159 18.9147C130.435 18.3434 129.588 18.0574 128.617 18.0574C128.178 18.0574 127.75 18.1242 127.331 18.2577C126.912 18.3911 126.54 18.5718 126.217 18.8002C125.893 19.0287 125.636 19.3002 125.445 19.6144C125.255 19.9291 125.16 20.2669 125.16 20.6288V23.8572C125.16 24.2387 125.254 24.5816 125.445 24.886C125.635 25.1909 125.893 25.4573 126.217 25.6857C126.54 25.9141 126.912 26.0908 127.331 26.2145C127.75 26.3388 128.178 26.4003 128.617 26.4003C129.055 26.4003 129.507 26.3388 129.917 26.2145C130.326 26.0908 130.692 25.9141 131.017 25.6857C131.341 25.4573 131.597 25.1903 131.788 24.886C131.978 24.5816 132.074 24.2387 132.074 23.8572V20.6288C132.074 19.9815 131.769 19.4101 131.159 18.9147Z" fill="#C80009"/>
</svg>
