<svg width="22" height="23" viewBox="0 0 22 23" fill="none"
  xmlns="http://www.w3.org/2000/svg">
  <path d="M13.9693 19.5C13.7232 21.4732 12.04 23 10.0002 23C7.96042 23 6.27722 21.4732 6.03118 19.5H2.03906C0.934493 19.5 0.0390625 18.6046 0.0390625 17.5C0.0390625 17.0568 0.186288 16.6261 0.457615 16.2757L2.0002 14.2831V9C2.0002 4.58172 5.58193 1 10.0002 1C14.4185 1 18.0002 4.58172 18.0002 9V14.2831L19.5428 16.2757C20.219 17.1491 20.0591 18.4053 19.1857 19.0814C18.8352 19.3528 18.4046 19.5 17.9613 19.5H13.9693ZM11.9372 19.5H8.06324C8.28526 20.3626 9.06831 21 10.0002 21C10.9321 21 11.7152 20.3626 11.9372 19.5ZM4.0002 9V14.625C4.0002 14.8466 3.92659 15.0619 3.79093 15.2372L2.03906 17.5H17.9613L16.2095 15.2372C16.0738 15.0619 16.0002 14.8466 16.0002 14.625V9C16.0002 5.68629 13.3139 3 10.0002 3C6.6865 3 4.0002 5.68629 4.0002 9Z" fill="#2D2B2E"/>
  <circle cx="17" cy="5" r="5" fill="#C80009"/>
</svg>
