<svg width="31" height="30" viewBox="0 0 31 30" fill="none"
  xmlns="http://www.w3.org/2000/svg">
  <rect x="1.5" y="1" width="22" height="28" rx="4" fill="white" stroke="#2D2B2E" stroke-width="2"/>
  <circle cx="12.5" cy="10" r="4" fill="#1F9C81"/>
  <path d="M4.5 23C4.5 18.5817 8.08172 15 12.5 15C16.9183 15 20.5 18.5817 20.5 23H4.5Z" fill="#C80009"/>
  <path d="M13.5669 19.2666H17.3002" stroke="white" stroke-width="2" stroke-linecap="round" stroke-linejoin="round"/>
  <path d="M24.5 5H27.5C29.1569 5 30.5 6.34315 30.5 8C30.5 9.65685 29.1569 11 27.5 11H24.5V5Z" fill="#C80009"/>
  <path d="M24.5 12H27.5C29.1569 12 30.5 13.3431 30.5 15C30.5 16.6569 29.1569 18 27.5 18H24.5V12Z" fill="#1F9C81"/>
  <path d="M24.5 19H27.5C29.1569 19 30.5 20.3431 30.5 22C30.5 23.6569 29.1569 25 27.5 25H24.5V19Z" fill="#2D2B2E"/>
</svg>
