<svg width="31" height="30" viewBox="0 0 31 30" fill="none" xmlns="http://www.w3.org/2000/svg">
<circle cx="7.5" cy="27" r="3" fill="#1F9C81"/>
<circle cx="22.5" cy="27" r="3" fill="#1F9C81"/>
<path d="M3.88673 4.29289C4.23862 1.82965 6.34823 0 8.83648 0H16.5C17.6046 0 18.5 0.895431 18.5 2V21H3.80602C2.58892 21 1.654 19.922 1.82612 18.7172L3.88673 4.29289Z" fill="#C80009"/>
<path d="M29.5 16.4721V20C29.5 21.1046 28.6046 22 27.5 22H20.5V8C20.5 6.89543 21.3954 6 22.5 6H23.2639C24.0215 6 24.714 6.42801 25.0528 7.10557L29.2889 15.5777C29.4277 15.8554 29.5 16.1616 29.5 16.4721Z" fill="white"/>
<path d="M1.5 22H20.5M20.5 22H27.5C28.6046 22 29.5 21.1046 29.5 20V16.4721C29.5 16.1616 29.4277 15.8554 29.2889 15.5777L25.0528 7.10557C24.714 6.42801 24.0215 6 23.2639 6H22.5C21.3954 6 20.5 6.89543 20.5 8V22Z" stroke="#2D2B2E" stroke-width="2" stroke-linecap="round" stroke-linejoin="round"/>
<path d="M6.5 14L15.5 14" stroke="white" stroke-width="2" stroke-linecap="round" stroke-linejoin="round"/>
<path d="M9.5 18H15.5" stroke="white" stroke-width="2" stroke-linecap="round" stroke-linejoin="round"/>
</svg>
