<svg width="31" height="30" viewBox="0 0 31 30" fill="none" xmlns="http://www.w3.org/2000/svg">
<rect x="3.5" y="1" width="24" height="28" rx="4" fill="white" stroke="#2D2B2E" stroke-width="2"/>
<path d="M10.5 23H20.5" stroke="#2D2B2E" stroke-width="2" stroke-linecap="round" stroke-linejoin="round"/>
<path d="M5.5 0H10.5V9C10.5 11.7614 8.26142 14 5.5 14C2.73858 14 0.5 11.7614 0.5 9V5C0.5 2.23858 2.73858 0 5.5 0Z" fill="#C80009"/>
<path d="M20.5 0H25.5C28.2614 0 30.5 2.23858 30.5 5V9C30.5 11.7614 28.2614 14 25.5 14C22.7386 14 20.5 11.7614 20.5 9V0Z" fill="#C80009"/>
<path d="M10.5 0H20.5V9C20.5 11.7614 18.2614 14 15.5 14C12.7386 14 10.5 11.7614 10.5 9V0Z" fill="#1F9C81"/>
<path d="M17.5 5L25.5 5" stroke="white" stroke-width="2" stroke-linecap="round" stroke-linejoin="round"/>
</svg>
