<svg width="20" height="22" viewBox="0 0 20 22" fill="none"
  xmlns="http://www.w3.org/2000/svg">
  <path d="M11.2685 0.077517C11.4297 0.139869 11.571 0.237062 11.6816 0.358873L19.1386 7.23239C19.2709 7.33439 19.3765 7.46494 19.4442 7.61376C19.5036 7.73804 19.5297 7.86461 19.528 7.98822C19.5281 7.99214 19.5281 7.99607 19.5281 8V18C19.5281 20.2091 17.5852 22 15.1885 22H4.33958C1.94289 22 0 20.2091 0 18V4C0 1.79086 1.94289 0 4.33958 0H10.8489C10.8532 0 10.8575 2.27685e-05 10.8617 6.80685e-05C10.996 -0.00145649 11.1335 0.0225995 11.2685 0.077517ZM11.9338 3.40857V6C11.9338 6.55228 12.4196 7 13.0187 7H15.8301L11.9338 3.40857ZM4.33958 2C3.14123 2 2.16979 2.89543 2.16979 4V18C2.16979 19.1046 3.14123 20 4.33958 20H15.1885C16.3869 20 17.3583 19.1046 17.3583 18V9H13.0187C11.2212 9 9.76404 7.65685 9.76404 6V2H4.33958Z" fill="#1F9C81"/>
</svg>
