<svg width="80" height="80" viewBox="0 0 80 80" fill="none" xmlns="http://www.w3.org/2000/svg">
<circle opacity="0.5" cx="40" cy="40" r="35" stroke="#2D2B2E" stroke-opacity="0.1" stroke-width="10"/>
<path d="M29.1844 6.71302C34.4374 5.00621 40.0198 4.56686 45.4752 5.43091C50.9306 6.29495 56.104 8.43785 60.5725 11.6844C65.041 14.931 68.6777 19.189 71.1852 24.1103C73.6928 29.0317 75 34.4766 75 40" stroke="#C80009" stroke-width="10" stroke-linecap="round"/>
<path d="M27.5156 41.3984V39.625H28.6484C29.5859 39.625 30.2344 39.0391 30.2344 38.2578C30.2266 37.4609 29.5547 36.9219 28.6484 36.9219C27.6953 36.9219 27.0781 37.5469 27.0391 38.2109H24.9453C25.0078 36.4297 26.3516 35.1484 28.7266 35.1406C30.9922 35.1328 32.4062 36.3125 32.4297 37.9375C32.4531 39.4531 31.2344 40.2266 30.4609 40.3438V40.4688C31.4453 40.5625 32.7266 41.3281 32.75 43C32.7656 45.0859 30.8594 46.2031 28.6562 46.2031C26.1719 46.2031 24.8047 44.7656 24.7656 43.1016H26.8281C26.875 43.8359 27.6328 44.3828 28.6562 44.3828C29.7812 44.3906 30.5156 43.7656 30.5078 42.8828C30.5 42.0391 29.8125 41.3984 28.7031 41.3984H27.5156ZM36.8438 40.4219V40.9062C36.8438 43.1406 37.5859 44.2969 38.6953 44.2969C39.8047 44.2969 40.5469 43.1328 40.5469 40.9062V40.4219C40.5469 38.1953 39.8047 37.0469 38.6953 37.0469C37.5859 37.0469 36.8438 38.1875 36.8438 40.4219ZM34.5859 40.9141V40.4141C34.5859 37.2812 36.1016 35.1406 38.7188 35.1406C41.3516 35.1406 42.8047 37.2656 42.8047 40.4141V40.9141C42.8047 43.875 41.4062 46.2031 38.6797 46.2031C36.0469 46.2031 34.5859 44.0391 34.5859 40.9141ZM45.3281 37.8672V37.9531C45.3281 38.8906 45.6953 39.3984 46.2578 39.3984C46.8125 39.3984 47.1875 38.9062 47.1875 37.9688V37.875C47.1875 36.9375 46.8281 36.4453 46.2656 36.4453C45.6797 36.4453 45.3281 36.9531 45.3281 37.8672ZM43.9453 38.0312V37.7891C43.9453 36.3203 44.8281 35.2031 46.2734 35.2031C47.7109 35.2031 48.5781 36.3125 48.5781 37.7969V38.0469C48.5781 39.4375 47.75 40.6484 46.2422 40.6484C44.7969 40.6484 43.9453 39.5156 43.9453 38.0312ZM51.5859 43.3516V43.4375C51.5859 44.375 51.9531 44.8828 52.5156 44.8828C53.0703 44.8828 53.4453 44.3828 53.4453 43.4453V43.3594C53.4453 42.4219 53.0859 41.9297 52.5234 41.9297C51.9375 41.9297 51.5859 42.4375 51.5859 43.3516ZM50.2031 43.5156V43.2734C50.2031 41.8047 51.0859 40.6875 52.5312 40.6875C53.9688 40.6875 54.8359 41.7891 54.8359 43.2812V43.5234C54.8359 44.9141 54.0078 46.1328 52.5 46.1328C51.0547 46.1328 50.2031 45 50.2031 43.5156ZM46.0703 46.0078H44.4375L48.7969 40.3828L52.6562 35.3359H54.2891L50 40.8516L46.0703 46.0078Z" fill="#2D2B2E"/>
</svg>
