<svg width="14" height="18" viewBox="0 0 14 18" fill="none" xmlns="http://www.w3.org/2000/svg">
<path d="M6.48777 1.89281C9.77443 1.64354 12.8758 3.79597 13.7601 7.15591C14.2469 9.0054 13.9827 10.9372 13.0609 12.5625C12.8575 12.9212 12.4069 13.0441 12.0546 12.837C11.7022 12.6299 11.5815 12.1712 11.7849 11.8125C12.5132 10.5283 12.7215 9.00541 12.3369 7.54414C11.594 4.7216 8.86942 2.97844 6.0955 3.45048L7.08938 4.46231C7.37707 4.7552 7.37707 5.23008 7.08938 5.52297C6.80168 5.81586 6.33523 5.81586 6.04754 5.52297L4.48479 3.93198C3.9094 3.34619 3.9094 2.39645 4.48479 1.81066L6.04754 0.21967C6.33523 -0.0732233 6.80168 -0.0732233 7.08938 0.21967C7.37707 0.512563 7.37707 0.987437 7.08938 1.28033L6.48777 1.89281ZM7.51223 16.1072C4.22557 16.3565 1.12424 14.204 0.239924 10.8441C-0.24685 8.9946 0.0173445 7.06284 0.939082 5.4375C1.14251 5.07878 1.59306 4.95587 1.94542 5.16298C2.29777 5.37009 2.4185 5.82878 2.21506 6.1875C1.48677 7.47173 1.2785 8.99459 1.6631 10.4559C2.40597 13.2784 5.13058 15.0216 7.9045 14.5495L6.91062 13.5377C6.62293 13.2448 6.62293 12.7699 6.91062 12.477C7.19832 12.1841 7.66476 12.1841 7.95246 12.477L9.51521 14.068C10.0906 14.6538 10.0906 15.6036 9.51521 16.1893L7.95246 17.7803C7.66476 18.0732 7.19832 18.0732 6.91062 17.7803C6.62293 17.4874 6.62293 17.0126 6.91062 16.7197L7.51223 16.1072Z" fill="#1F9C81"/>
</svg>
